<svg xmlns="http://www.w3.org/2000/svg" width="34" height="34" viewBox="0 0 34 34">
  <g id="그룹_217668" data-name="그룹 217668" transform="translate(-1485 -19)">
    <g id="사각형_2797" data-name="사각형 2797" transform="translate(1485 19)" fill="#fff" stroke="#707070" stroke-width="1.5" opacity="0">
      <rect width="34" height="34" stroke="none"/>
      <rect x="0.75" y="0.75" width="32.5" height="32.5" fill="none"/>
    </g>
    <g id="그룹_217667" data-name="그룹 217667" transform="translate(1493.947 28)">
      <g id="그룹_217666" data-name="그룹 217666">
        <path id="패스_60241" data-name="패스 60241" d="M14.413,15.648v.986A2.3,2.3,0,0,1,12.211,19H5.2A2.3,2.3,0,0,1,3,16.634V5.366A2.3,2.3,0,0,1,5.2,3h7.009a2.3,2.3,0,0,1,2.2,2.366v.91" transform="translate(-3 -3)" fill="none" stroke="#222" stroke-linecap="round" stroke-linejoin="round" stroke-width="1.5"/>
        <path id="패스_60242" data-name="패스 60242" d="M70.371,24.284l2.917,3.334-2.917,3.334" transform="translate(-56.289 -19.618)" fill="none" stroke="#222" stroke-linecap="round" stroke-linejoin="round" stroke-width="1.5"/>
        <line id="선_5212" data-name="선 5212" x1="11.037" transform="translate(5.964 8)" fill="none" stroke="#222" stroke-linecap="round" stroke-linejoin="round" stroke-width="1.5"/>
      </g>
    </g>
  </g>
</svg>
