<svg id="그룹_217447" data-name="그룹 217447" xmlns="http://www.w3.org/2000/svg" xmlns:xlink="http://www.w3.org/1999/xlink" width="116" height="18" viewBox="0 0 116 18">
  <defs>
    <clipPath id="clip-path">
      <rect id="사각형_117693" data-name="사각형 117693" width="116" height="18" transform="translate(0 0)" fill="none"/>
    </clipPath>
  </defs>
  <g id="그룹_215543" data-name="그룹 215543" transform="translate(0 0)" clip-path="url(#clip-path)">
    <path id="패스_59531" data-name="패스 59531" d="M75.186,34.066a10.41,10.41,0,0,0-3.65-1.426,3.754,3.754,0,0,1-.972-.372.387.387,0,0,1-.181-.377.345.345,0,0,1,.18-.347,1.754,1.754,0,0,1,.779-.115,9.978,9.978,0,0,1,3.788.962l.047.02.937-3.137-.039-.014a12.823,12.823,0,0,0-4.619-.836,5.833,5.833,0,0,0-3.687,1.008,3.409,3.409,0,0,0-1.232,2.81,2.951,2.951,0,0,0,1.115,2.607,11.281,11.281,0,0,0,3.885,1.495,2.194,2.194,0,0,1,.753.288.443.443,0,0,1,.171.395.369.369,0,0,1-.224.358,1.944,1.944,0,0,1-.826.127A11.86,11.86,0,0,1,67.3,36.5l-.046-.02-.985,3.068.038.015a14.407,14.407,0,0,0,5.007.947,6.05,6.05,0,0,0,3.645-.956,3.49,3.49,0,0,0,1.344-2.972,2.886,2.886,0,0,0-1.121-2.522" transform="translate(-51.971 -22.515)" fill="#535252"/>
    <path id="패스_59532" data-name="패스 59532" d="M131.723,27.421c-4.011,0-6.951-1.922-6.951-6.77V11.893h4.512v8.758c0,1.878.774,3.035,2.507,3.035s2.459-1.157,2.459-3.035V11.893h4.513v8.758c0,4.848-3.031,6.77-7.041,6.77" transform="translate(-97.844 -9.421)" fill="#e43c00"/>
    <path id="패스_59533" data-name="패스 59533" d="M65.487,9.167l-2.928.568c3.09-5,.289-8.861.289-8.861L66.514,0c3.054,4.475-1.027,9.167-1.027,9.167" transform="translate(-49.058 0)" fill="#e43c00"/>
    <path id="패스_59534" data-name="패스 59534" d="M11.432,11.11,10.1,13.459a32.155,32.155,0,0,0-1.782,3.855,32.409,32.409,0,0,0-1.784-3.855L5.208,11.11H0l6.02,9.755v5.694h4.554V20.8L16.6,11.11Z" transform="translate(0 -8.801)" fill="#535252"/>
    <path id="패스_59535" data-name="패스 59535" d="M230.924,53.132c-2.517,0-4.284,1.426-4.284,3.357s1.767,3.339,4.284,3.339,4.265-1.406,4.265-3.339-1.75-3.357-4.265-3.357m0,4.987c-1.269,0-2.207-.514-2.207-1.631s.953-1.649,2.207-1.649c1.141,0,2.187.541,2.187,1.649s-.921,1.631-2.187,1.631" transform="translate(-177.727 -42.087)" fill="#535252"/>
    <path id="패스_59536" data-name="패스 59536" d="M251.626,16.321h-2.011v1.641h2.011v1.521h-2.011v1.634h2.011v1.526h2.012V15.137h-2.012Z" transform="translate(-195.743 -11.991)" fill="#535252"/>
    <path id="패스_59537" data-name="패스 59537" d="M285.235,24.109l.963-1.342A6.435,6.435,0,0,1,283.213,17v-.148h-2.087V17a6.44,6.44,0,0,1-2.987,5.764l.967,1.342a7.447,7.447,0,0,0,3.065-3.1,7.425,7.425,0,0,0,3.064,3.1" transform="translate(-218.112 -13.351)" fill="#535252"/>
    <path id="패스_59538" data-name="패스 59538" d="M218.908,18.371a3.66,3.66,0,1,0-7.317,0,3.66,3.66,0,1,0,7.317,0m-5.254,0c0-1.189.511-2.067,1.6-2.067s1.593.878,1.593,2.067-.507,2.059-1.593,2.062-1.6-.873-1.6-2.062" transform="translate(-165.926 -11.575)" fill="#535252"/>
    <path id="패스_59539" data-name="패스 59539" d="M496.257,20.974v5.234h1.985v-5.9c0-.878-.062-2.051-1.8-2.051h-8.053v1.666h6.7c1.137,0,1.169.127,1.169,1.052" transform="translate(-382.987 -14.462)" fill="#535252"/>
    <path id="패스_59540" data-name="패스 59540" d="M491.356,48.7V44.384h-1.927V48.7h-1.3V44.384h-1.911V48.7h-2.4v1.673H495.4V48.7Z" transform="translate(-379.403 -35.157)" fill="#535252"/>
    <path id="패스_59541" data-name="패스 59541" d="M434.281,57.815h-7.345v1.641h6.4c.71,0,.744.252.744.847v2.363h1.954V59.585c0-1.281-.612-1.77-1.758-1.77" transform="translate(-334.796 -45.796)" fill="#535252"/>
    <path id="패스_59542" data-name="패스 59542" d="M462.01,15.093h-1.954V23.07h1.954V19.787h1.92V18.141h-1.92Z" transform="translate(-360.767 -11.956)" fill="#535252"/>
    <path id="패스_59543" data-name="패스 59543" d="M424.071,18.086a2.673,2.673,0,0,0-1.558-2.412h1.981V14.159h-2.926V13.027H419.5v1.132h-2.939v1.515h1.971a2.673,2.673,0,0,0-1.569,2.412c0,1.636,1.467,2.833,3.557,2.833s3.546-1.2,3.546-2.833m-5.266,0c0-.88.745-1.3,1.719-1.3.892,0,1.711.422,1.711,1.3s-.721,1.286-1.711,1.286-1.719-.412-1.719-1.286" transform="translate(-326.663 -10.319)" fill="#535252"/>
    <path id="패스_59544" data-name="패스 59544" d="M351.743,24.627V19.857h3.693V18.218H349.8V25.5c0,1.247.584,1.744,1.676,1.766h4.128V25.625l-3.046,0c-.79,0-.82-.329-.82-1" transform="translate(-274.31 -14.431)" fill="#535252"/>
    <path id="패스_59545" data-name="패스 59545" d="M324.777,15.137h-1.955v9.688h1.955V19.957h1.875V18.321h-1.875Z" transform="translate(-253.151 -11.991)" fill="#535252"/>
    <path id="패스_59546" data-name="패스 59546" d="M292.4,60.59V58.4h-1.959v2.927c0,1.283.615,1.769,1.762,1.769h7.388V61.447h-6.452c-.713,0-.739-.257-.739-.856" transform="translate(-227.762 -46.256)" fill="#535252"/>
    <path id="패스_59547" data-name="패스 59547" d="M384.474,19.327h-1.339V15.093h-1.917V28.831h1.917V20.952h1.339v7.879h1.932V15.093h-1.932Z" transform="translate(-298.944 -11.955)" fill="#535252"/>
  </g>
</svg>
