<svg xmlns="http://www.w3.org/2000/svg" xmlns:xlink="http://www.w3.org/1999/xlink" width="212" height="45" viewBox="0 0 212 45">
  <defs>
    <clipPath id="clip-path">
      <rect id="사각형_116596" data-name="사각형 116596" width="211.662" height="34.098" fill="none"/>
    </clipPath>
  </defs>
  <g id="그룹_211219" data-name="그룹 211219" transform="translate(-818 -294.356)">
    <rect id="사각형_116597" data-name="사각형 116597" width="212" height="45" transform="translate(818 294.356)" fill="#fff"/>
    <g id="그룹_211217" data-name="그룹 211217" transform="translate(818 299.292)">
      <g id="그룹_211216" data-name="그룹 211216" transform="translate(0 0)" clip-path="url(#clip-path)">
        <path id="패스_58931" data-name="패스 58931" d="M82.536,39.112c-1.411-1.122-3.582-1.891-6.661-2.7a6.7,6.7,0,0,1-1.773-.7.743.743,0,0,1-.331-.714.66.66,0,0,1,.328-.657,3.1,3.1,0,0,1,1.422-.219,17.664,17.664,0,0,1,6.911,1.822l.085.037,1.71-5.942-.071-.026a22.635,22.635,0,0,0-8.428-1.584c-2.984,0-5.226.667-6.728,1.91a6.567,6.567,0,0,0-2.248,5.323c0,2.278.591,3.791,2.034,4.938s3.719,1.935,7.09,2.831a3.919,3.919,0,0,1,1.374.546.853.853,0,0,1,.312.748.7.7,0,0,1-.409.679,3.431,3.431,0,0,1-1.506.24,20.989,20.989,0,0,1-7.491-1.906l-.083-.037-1.8,5.812.069.029a25.44,25.44,0,0,0,9.136,1.794,10.737,10.737,0,0,0,6.65-1.811,6.713,6.713,0,0,0,2.453-5.629,5.553,5.553,0,0,0-2.046-4.777" transform="translate(-40.175 -17.231)" fill="#535252"/>
        <path id="패스_58932" data-name="패스 58932" d="M137.455,41.308c-7.318,0-12.683-3.641-12.683-12.824V11.893h8.234v16.59c0,3.557,1.413,5.749,4.575,5.749s4.488-2.192,4.488-5.749V11.893H150.3v16.59c0,9.183-5.531,12.824-12.848,12.824" transform="translate(-75.637 -7.21)" fill="#e43c00"/>
        <path id="패스_58933" data-name="패스 58933" d="M67.9,17.365l-5.342,1.076c5.638-9.471.528-16.785.528-16.785L69.775,0C75.347,8.478,67.9,17.365,67.9,17.365" transform="translate(-37.923 0)" fill="#e43c00"/>
        <path id="패스_58934" data-name="패스 58934" d="M20.86,11.11l-2.425,4.451a62.048,62.048,0,0,0-3.252,7.3,62.536,62.536,0,0,0-3.255-7.3L9.5,11.11H0L10.985,29.589V40.376h8.31V29.464L30.281,11.11Z" transform="translate(0 -6.735)" fill="#535252"/>
        <path id="패스_58935" data-name="패스 58935" d="M234.457,53.132c-4.593,0-7.817,2.7-7.817,6.359s3.224,6.325,7.817,6.325,7.781-2.664,7.781-6.325-3.193-6.359-7.781-6.359m0,9.448c-2.316,0-4.026-.974-4.026-3.089,0-2.1,1.739-3.124,4.026-3.124,2.081,0,3.99,1.024,3.99,3.124,0,2.115-1.681,3.089-3.99,3.089" transform="translate(-137.39 -32.209)" fill="#535252"/>
        <path id="패스_58936" data-name="패스 58936" d="M253.285,17.38h-3.67v3.108h3.67v2.881h-3.67v3.095h3.67v2.892h3.672V15.137h-3.672Z" transform="translate(-151.317 -9.177)" fill="#535252"/>
        <path id="패스_58937" data-name="패스 58937" d="M291.086,30.6l1.758-2.542a12.257,12.257,0,0,1-5.447-10.92v-.281h-3.808v.281a12.266,12.266,0,0,1-5.45,10.92L279.9,30.6A13.812,13.812,0,0,0,285.5,24.73a13.773,13.773,0,0,0,5.591,5.867" transform="translate(-168.609 -10.218)" fill="#535252"/>
        <path id="패스_58938" data-name="패스 58938" d="M224.943,21.732c0-4.18-2.814-7.119-6.674-7.119s-6.678,2.939-6.678,7.119,2.817,7.1,6.678,7.1,6.674-2.909,6.674-7.1m-9.587,0c0-2.253.932-3.916,2.913-3.916s2.907,1.663,2.907,3.916-.925,3.9-2.907,3.906-2.913-1.653-2.913-3.906" transform="translate(-128.267 -8.859)" fill="#535252"/>
        <path id="패스_58939" data-name="패스 58939" d="M502.743,23.4v9.915h3.622V22.142c0-1.663-.114-3.885-3.28-3.885H488.391v3.155H500.61c2.075,0,2.133.241,2.133,1.992" transform="translate(-296.064 -11.068)" fill="#535252"/>
        <path id="패스_58940" data-name="패스 58940" d="M497.57,52.559V44.384h-3.515v8.175h-2.377V44.384h-3.487v8.175H483.82v3.17h21.135v-3.17Z" transform="translate(-293.293 -26.906)" fill="#535252"/>
        <path id="패스_58941" data-name="패스 58941" d="M440.338,57.815h-13.4v3.109H438.62c1.3,0,1.358.477,1.358,1.6v4.477h3.566V61.168c0-2.426-1.116-3.353-3.207-3.353" transform="translate(-258.81 -35.048)" fill="#535252"/>
        <path id="패스_58942" data-name="패스 58942" d="M463.622,15.093h-3.566V30.2h3.566V23.985h3.5V20.867h-3.5Z" transform="translate(-278.887 -9.15)" fill="#535252"/>
        <path id="패스_58943" data-name="패스 58943" d="M430.26,22.611a5.079,5.079,0,0,0-2.842-4.569h3.615v-2.87h-5.34V13.027h-3.766v2.145h-5.363v2.87h3.6a5.077,5.077,0,0,0-2.862,4.569c0,3.1,2.677,5.367,6.49,5.367s6.471-2.267,6.471-5.367m-9.608,0c0-1.668,1.359-2.467,3.137-2.467,1.627,0,3.121.8,3.121,2.467s-1.315,2.436-3.121,2.436-3.137-.78-3.137-2.436" transform="translate(-252.523 -7.897)" fill="#535252"/>
        <path id="패스_58944" data-name="패스 58944" d="M353.342,30.36V21.322h6.739v-3.1H349.8V32.012c0,2.363,1.065,3.3,3.059,3.346H360.4V32.249l-5.558,0c-1.442,0-1.5-.623-1.5-1.886" transform="translate(-212.052 -11.044)" fill="#535252"/>
        <path id="패스_58945" data-name="패스 58945" d="M326.389,15.137h-3.567V33.49h3.567V24.267h3.421v-3.1h-3.421Z" transform="translate(-195.696 -9.176)" fill="#535252"/>
        <path id="패스_58946" data-name="패스 58946" d="M294.019,62.554V58.395h-3.574v5.544c0,2.43,1.122,3.352,3.215,3.352H307.14V64.176H295.367c-1.3,0-1.348-.488-1.348-1.622" transform="translate(-176.069 -35.399)" fill="#535252"/>
        <path id="패스_58947" data-name="패스 58947" d="M387.159,23.113h-2.444v-8.02h-3.5V41.118h3.5V26.192h2.444V41.118h3.526V15.093h-3.526Z" transform="translate(-231.095 -9.15)" fill="#535252"/>
      </g>
    </g>
  </g>
</svg>
